<?xml version="1.0" encoding="iso-8859-1"?>
<!-- Generator: Adobe Illustrator 16.0.0, SVG Export Plug-In . SVG Version: 6.00 Build 0)  -->
<!DOCTYPE svg PUBLIC "-//W3C//DTD SVG 1.1//EN" "http://www.w3.org/Graphics/SVG/1.1/DTD/svg11.dtd">
<svg version="1.1" id="Layer_1" xmlns="http://www.w3.org/2000/svg" xmlns:xlink="http://www.w3.org/1999/xlink" x="0px" y="0px"
	 width="578.873px" height="204.225px" viewBox="0 0 578.873 204.225" style="enable-background:new 0 0 578.873 204.225;"
	 xml:space="preserve">
<g>
	<g>
		<rect x="277.792" y="212.637" style="fill:#EEAF40;" width="0.001" height="0.001"/>
		<polygon style="fill:#EEAF40;" points="277.793,212.637 277.793,212.637 277.792,212.637 		"/>
		<g>
			<polygon style="fill:#FFFFFF;" points="265.574,105.547 265.548,105.547 251.851,105.547 251.825,105.547 242.641,124.696 
				267.919,110.326 			"/>
			<path style="fill:#FFFFFF;" d="M311.482,84.124l17.435-9.876c0-0.001,0.126-0.002,0.126-0.002l-17.052,9.876l-0.384,0.243
				l-0.429,0.089l0.304-0.332V9.131h-10.713v72.571l3.684,6.705h0.051l-3.124-6.715l-21.767-46.594l-9.778-20.902l-5.641,3.258
				l5.656-3.025l-2.59-5.298h-0.026h-13.697h-0.025l-9.614,20.283l16.211-9.474l0.277-0.643l-0.277,0.559l0.422-0.26l19.095,40.516
				l15.682,33.295H295.3l0.018,0.201l0.033,0.553l0.097,0.674h5.957h5.842l-2.62-5.926l0.002,0.234l2.618,5.692h4.235V84.124z
				 M301.61,90.154l-0.053,0.032l-0.152,0.086l-0.228,0.133l-0.029,0.018l0.257-0.15L301.61,90.154z M304.623,88.429l-0.005-0.01
				l0.001,0L304.623,88.429L304.623,88.429z"/>
			<path style="fill:#FFFFFF;" d="M428.61,93.856c4.999-0.003,9.964-0.822,14.135-2.326c16.913-5.771,28.86-21.651,28.86-40.34
				c0-18.69-11.62-34.57-28.534-40.342c-0.687-0.291-2.319-0.51-2.319-0.748c0-0.004,0-0.009,0-0.009l-0.164,0.006
				c-0.008-0.001-0.092-0.003-0.1-0.006l-0.092,0.281c-3.571-0.972-7.365-1.242-11.246-1.242h-0.023h-32.125h-0.049H365.15
				c-23.563,0-42.666,18.798-42.666,42.363c0,8.493,2.481,16.254,6.76,22.902l3.462-2.058l-3.38,1.94
				c6.946,10.793,18.58,18.217,32.149,19.409v9.194v2.667h-1.364h-0.377h-5.496h-7.132H333.31h-11.861h-10.682v15.712h-0.04
				l0.36,0.186l9.679,5.57v-0.008l0.6-0.034h0.026l-0.626,0.019v-11.445h40.709v21.426h-23.218l-0.683-0.392l0.683,0.392h-17.491
				v-9.93l16.244,9.324l-16.244-9.333v-0.019l-9.999-6.157v31.985v25.234v12.459h9.999v-35.221v-6.917h34.486l17.65,37.478v-0.054
				l2.367,4.714h11.801l-16.157-34.721l-0.007-0.126l-3.973-8.581c4.999-0.957,9.398-3.685,12.513-7.459
				c0.009-0.011,0.016-0.036,0.024-0.047l22.725-13.105l18.995-10.951h6.705v73.224l0,0v1.767h2.911h0.001h7.801v-74.99h4.366
				h21.927h5.132v-9.999H446.45l-3.45-2.271l0.048,0.253l-15.631-8.695h1.193V93.856z M375.774,126.06
				c0,1.046-0.152,2.054-0.433,3.008C375.622,128.113,375.774,127.104,375.774,126.06L375.774,126.06z M371.474,134.11v-0.002
				V134.11c-1.429,1.426-3.64,2.416-5.89,2.648C367.834,136.526,370.045,135.533,371.474,134.11z M365.48,115.442
				c2.24,0.231,4.261,1.172,5.864,2.583c0.002,0.001,0.002,0.001,0.003,0.001c-0.001,0-0.001,0.002-0.003,0
				C369.741,116.616,367.72,115.673,365.48,115.442z M408.942,83.407l-6.717-4.003l-40.75-23.653v27.213
				c0.715,0.147,2.452,0.226,3.74,0.226c0.13,0,0.225,0.008,0.353,0.006c0,0.005-0.024,0.038-0.024,0.038s-0.004-0.033-0.005-0.038
				c-0.129,0.002-0.221,0.005-0.352,0.005c-1.288,0-2.611-0.09-3.77-0.237c-9.496-1.128-17.807-6.442-22.878-14.051l18.806-10.878
				L338.497,68.87l0,0l-0.006,0.031c-0.002-0.005-0.006,0.005-0.01,0l0.018-0.003c0-0.001-0.001,0.001-0.002,0.001l-0.017,0.012
				c-3.365-5.067-5.33-10.855-5.33-17.395c0-17.674,14.327-31.672,32-31.672h0.024h28.183h3.596h0.049h3.917h23.683l-63.126,35.873
				v-0.003v-0.002l-0.062,0.556h-0.031h-0.034l0.035-0.258l-4.038,2.192l4-2.116l0.04,0.181h0.011l-0.013-0.244l0.054-0.145
				l0.038-0.127v-0.01l63.13-35.897h4.499h0.044c4.981,0,9.657,0.771,13.827,2.805c10.659,5.177,18.08,15.997,18.08,28.682
				c0,12.683-7.421,23.659-18.08,28.836c-4.17,2.038-8.86,3.241-13.849,3.241H408.942z"/>
			<polygon style="fill:#FFFFFF;" points="442.894,8.543 442.894,8.542 442.968,8.442 440.425,9.845 440.401,9.845 			"/>
			<path style="fill:#FFFFFF;" d="M519.542,179.824h-0.229v-0.733c-9.999,0-18.773-4.402-24.643-11.551l0.108,0.143h-0.01
				l-0.032,0.014c-0.003-0.003-0.008-0.014-0.01-0.014h0.034c-3.525-4.285-5.952-9.284-6.853-14.998h33.32h0.005h20.219v-10.713
				h-2.084h-0.005h-14.597h-14.639h-22.132c0.656-3.571,1.978-7.533,3.839-10.741l-7.94-4.675l-1.305-0.799
				c-3.647,6.287-5.737,13.566-5.737,21.356c0,9.632,3.193,18.506,8.577,25.647l6.466-3.75l-2.189,1.273l-4.276,2.468l0,0
				l4.005-2.313l-4.025,2.701c7.787,10.33,20.179,17.397,34.111,17.397h42.644v-10.713h-14.438H519.542z"/>
			<polygon style="fill:#FFFFFF;" points="267.909,109.669 242.639,124.526 211.836,190.537 223.636,190.537 258.689,115.49 
				279.625,160.242 293.763,190.537 305.563,190.537 279.625,134.918 			"/>
			<path style="fill:#FFFFFF;" d="M215.779,139.591l5.631-3.256l-5.631,3.254v-34.042h-10.713v13.534v26.666l-7.078,4.794h-0.043
				l-41.828,23.902c-0.001,0-0.004-0.125-0.006-0.126l41.804-24.207l-40.766-23.614l-15.646-9.095v-11.854h-11.427v5.695
				l-13.569-8.362v27.286c-7.142-14.986-21.87-24.619-39.307-24.619H23.861H12.948v9.84v22.337v0.003v31.384h10.713v-25.229v-0.001
				v-28.334h25.332h28.184H77.2c17.673,0,32,14.246,32,31.92c0,15.309-10.749,28.062-25.11,31.215l-0.017-0.023
				c-2.214,0.484-4.513,0.736-6.873,0.736c-0.13,0-0.256,0.2-0.384,0.199c-0.001,0.005-0.002,0.23-0.002,0.23h-27.82H20.048h-7.1
				v10.713h63.563v-0.484c0,0,0.36,0.002,0.394,0.002c6.809,0,13.391-1.598,19.102-4.435l-1.145-0.704l1.385,0.708
				c8.914-4.428,15.975-11.882,20.26-21.017v32.596l-0.029,0.018l0.029-0.018v0.018l13.61-7.935l14.702-8.397l1.685-0.866v-0.004
				c0,0.012-0.2,0.023-0.184,0.036l-0.17,0.032l-16.104,9.265l16.019-9.265l0.041-0.032c7.399,6.172,16.77,9.894,27.159,9.894
				c23.564,0,42.517-19.096,42.517-42.66V139.591z M146.033,180.283l-0.884,0.379l0.883-0.575
				c-9.352-7.825-15.302-19.618-15.302-32.769c0,13.15,5.95,25.153,15.302,32.979l0.008,0.24c0,0,0.001,0,0.002,0L146.033,180.283z
				 M205.066,148.399h0.331c0,17.141-14.327,31.443-32,31.443c-6.365,0-12.295-2.135-17.278-5.339l41.662-24.3l7.286-4.453V148.399z
				"/>
			<polygon style="fill:#FFFFFF;" points="242.677,124.248 221.77,136.335 242.697,124.245 			"/>
			<polygon style="fill:#FFFFFF;" points="242.639,124.248 267.422,109.651 278.629,102.893 278.629,103.405 279.647,103.405 
				295.353,94.073 294.848,93.928 278.629,102.881 278.629,102.893 267.421,109.65 242.391,124.245 			"/>
			<path style="fill:#FFFFFF;" d="M524.767,104.119h-5.454v0.308c0,0,0.087-0.002,0.055-0.002c-15.772,0-29.468,8.56-36.854,21.288
				l1.345,0.754l7.955,4.584c5.537-9.542,15.869-15.958,27.696-15.958c0.13,0,0.261-0.117,0.39-0.117
				c0-0.004,0.007,0.572,0.008-0.143h4.86h22.96h14.438v-10.713H524.767z"/>
			<rect x="361.346" y="55.713" style="fill:#FFFFFF;" width="0.002" height="0.001"/>
			<path style="fill:#FFFFFF;" d="M224.337,70.922l-0.01-0.005l-0.026,0.057l-0.053-0.03l0,0l-0.099,0.031l-6.227,12.994v-0.56
				h-7.792h-2.371h-4.421h-28.945h-27.82c0,0-0.001-0.071-0.002-0.075c-0.128,0.001-0.24-0.015-0.37-0.015
				c-13.691,0-25.293-8.622-29.927-20.715c-1.391-3.516-2.059-7.339-2.059-11.321s0.668-7.818,2.059-11.36
				c3.475-9.322,11.149-16.642,20.693-19.421l-0.005,0.276c2.705-0.787,5.561-0.932,8.515-0.932h0.652h0.081h28.184h21.514h3.555
				h10.604V9.131h-10.54L146.402,8.51c-8.066,0-14.807,1.996-20.989,5.393l-0.337,0.039v0.013l0.322,0.014
				c-0.009,0.004,0.132,0.008,0.124,0.013l0.078,0.001c-2.729,1.503-5.225,3.289-7.526,5.322c-0.633,0.559-1.355,1.138-1.818,1.734
				c-7.878,7.723-12.649,18.391-12.649,30.217c0,11.899,4.785,23.123,12.664,30.854c7.646,7.578,18.175,12.723,29.839,12.723
				c0.015,0,0.019,0,0.021,0h61.63h2.371h3.391h0.051h4.651h7.098l8.278-18.068l0.02-0.223l26.489-56.602l-16.211,9.301
				L224.337,70.922z"/>
		</g>
		<g>
			<polygon style="fill:#A7CE59;" points="361.578,104.473 361.578,55.646 403.864,80.06 446.15,104.473 403.864,128.887 
				361.578,153.301 			"/>
			<polygon style="fill:#BCD95B;" points="361.578,80.06 361.578,55.646 382.721,67.852 403.864,80.06 382.721,92.266 
				361.578,104.473 			"/>
			<polygon style="fill:#94B65C;" points="361.578,128.887 361.578,104.473 382.721,116.679 403.864,128.887 382.721,141.093 
				361.578,153.301 			"/>
			<polygon style="fill:#CDCD3C;" points="403.753,104.616 403.753,80.39 424.736,92.503 445.718,104.616 424.736,116.731 
				403.753,128.844 			"/>
		</g>
		<polygon style="fill:#ED6750;" points="115.948,150.096 115.948,102.925 156.799,126.511 197.651,150.096 156.799,173.682 
			115.948,197.267 		"/>
		<polygon style="fill:#C35951;" points="115.948,126.511 115.948,102.925 136.375,114.717 156.8,126.511 136.375,138.303 
			115.948,150.096 		"/>
		<polygon style="fill:#894A41;" points="115.948,173.682 115.948,150.096 136.375,161.888 156.8,173.682 136.375,185.474 
			115.948,197.267 		"/>
		<polygon style="fill:#EB8E4B;" points="156.694,150.235 156.694,126.83 176.963,138.533 197.234,150.235 176.963,161.938 
			156.694,173.641 		"/>
	</g>
	<rect x="146.502" y="9.131" style="fill:#FFFFFF;" width="63.563" height="5"/>
</g>
</svg>
